<svg id="Capa_1" data-name="Capa 1" xmlns="http://www.w3.org/2000/svg" viewBox="0 0 512 512"><defs><style>.cls-1{fill:#a1f14c;}</style></defs><g id="Setting_Cog" data-name="Setting Cog"><path class="cls-1" d="M256,64.54c-105.65,0-191.62,86-191.62,191.63S150.39,447.8,256,447.8s191.64-86,191.64-191.63S361.71,64.54,256,64.54Zm0,364.36c-95.23,0-172.71-77.49-172.71-172.73S160.81,83.43,256,83.43s172.73,77.5,172.73,172.74S351.29,428.9,256,428.9Z"/><path class="cls-1" d="M320.14,228.82l17.11-19.47-27-27-19.48,17.11a72.65,72.65,0,0,0-13.94-5.76l-1.67-25.88H236.94l-1.67,25.88a72.91,72.91,0,0,0-13.94,5.76l-19.47-17.11-27,27L192,228.82a72.88,72.88,0,0,0-5.75,13.94l-25.89,1.67v38.21l25.89,1.67A72.33,72.33,0,0,0,192,298.26l-17.1,19.46,27,27,19.47-17.12a72.48,72.48,0,0,0,13.93,5.77l1.68,25.87h38.21l1.67-25.88a72,72,0,0,0,13.94-5.77l19.47,17.12,27-27-17.11-19.47a72.77,72.77,0,0,0,5.77-13.95l25.87-1.67V244.43l-25.87-1.67A73.21,73.21,0,0,0,320.14,228.82Zm-64.1,69a34.26,34.26,0,1,1,34.25-34.26A34.26,34.26,0,0,1,256,297.8Z"/></g></svg>