<svg id="Capa_1" data-name="Capa 1" xmlns="http://www.w3.org/2000/svg" viewBox="0 0 512 512"><defs><style>.cls-1{fill:#f1f1f1;}</style></defs><g id="Link"><path class="cls-1" d="M247.64,64.54C142,64.54,56,150.5,56,256.16S142,447.8,247.64,447.8s191.64-86,191.64-191.64S353.31,64.54,247.64,64.54Zm0,364.36c-95.24,0-172.72-77.48-172.72-172.74S152.4,83.44,247.64,83.44s172.73,77.49,172.73,172.72S342.89,428.9,247.64,428.9Z"/><path class="cls-1" d="M322.33,170.72a25.58,25.58,0,0,0-36.19,0l-44.55,44.56a25.62,25.62,0,0,0,0,36.18l1.73,1.73-4.74,4.74-1.74-1.73a25.58,25.58,0,0,0-36.19,0l-44.55,44.55a25.6,25.6,0,0,0,0,36.18L173,353.78a25.6,25.6,0,0,0,36.19,0l44.55-44.56a25.6,25.6,0,0,0,0-36.18L252,271.3l4.74-4.75,1.75,1.75a25.6,25.6,0,0,0,36.19,0l44.55-44.56a25.62,25.62,0,0,0,0-36.18Zm-82,115.68a6.69,6.69,0,0,1,0,9.46l-44.56,44.56a6.84,6.84,0,0,1-9.44,0l-16.85-16.86a6.67,6.67,0,0,1,0-9.44L214,269.56a6.71,6.71,0,0,1,9.46,0l1.73,1.74-8.62,8.62L230,293.28l8.62-8.62Zm85.48-76-44.55,44.55a6.84,6.84,0,0,1-9.46,0l-1.74-1.75L283.27,240l-13.36-13.37L256.7,239.83,255,238.09a6.7,6.7,0,0,1,0-9.45l44.55-44.56a6.7,6.7,0,0,1,9.47,0l16.84,16.84A6.69,6.69,0,0,1,325.81,210.38Z"/></g></svg>