<svg id="Capa_1" data-name="Capa 1" xmlns="http://www.w3.org/2000/svg" viewBox="0 0 512 512"><defs><style>.cls-1{fill:#f1f1f1;}</style></defs><g id="Profile_Group_Friend" data-name="Profile Group Friend"><path class="cls-1" d="M247.64,64.54C142,64.54,56,150.5,56,256.17S142,447.8,247.64,447.8s191.64-86,191.64-191.63S353.31,64.54,247.64,64.54Zm0,364.36c-95.24,0-172.72-77.49-172.72-172.73S152.4,83.44,247.64,83.44s172.73,77.49,172.73,172.73S342.89,428.9,247.64,428.9Z"/><path class="cls-1" d="M319.88,253.75,318.43,246c15.38-8,26.18-26.95,26.18-49,0-29.34-19.09-53.13-42.62-53.13-18.54,0-34.26,14.78-40.12,35.38,23.56,7.49,41,33,41,63.43,0,20.87-8.25,40.14-21.79,52.38,2.14,1.09,4.52,2.21,6.66,3.22,10.93,5.12,26.05,12.24,37,26.48h55.64C380.36,268.83,332,267.91,319.88,253.75Z"/><path class="cls-1" d="M207.54,298.3c2.08-1,4.49-2.11,6.67-3.23-13.53-12.22-21.78-31.45-21.78-52.37,0-30.38,17.43-55.95,41-63.43-5.87-20.6-21.59-35.38-40.13-35.38-23.53,0-42.62,23.79-42.62,53.13,0,22.27,11,41.3,26.59,49.2L176,253c-11.09,14.88-61.07,14.86-61.07,71.78h55.63C181.49,310.54,196.62,303.42,207.54,298.3Z"/><path class="cls-1" d="M307.57,324.79h0l-.07-.06c-.85-.76-1.73-1.48-2.62-2.17l-.63-.49c-.72-.55-1.45-1.09-2.19-1.6l-.73-.51c-.73-.5-1.47-1-2.21-1.46l-.66-.42c-.84-.51-1.67-1-2.52-1.51l-.35-.2c-5.28-3-10.61-5.44-15.4-7.7l-.34-.16-2-1c-.77-.37-1.53-.75-2.26-1.12-.27-.13-.52-.28-.79-.41l-1.49-.79c-.28-.17-.55-.33-.83-.48-.44-.26-.87-.5-1.29-.76l-.78-.5c-.41-.26-.8-.52-1.17-.8s-.47-.32-.7-.5-.54-.44-.81-.66-.54-.43-.79-.65l0,0a16.85,16.85,0,0,1-1.39-1.42l-1.45-7.71c15.38-8,26.19-26.94,26.19-49,0-1.69-.08-3.36-.21-5,0-.54-.1-1.07-.16-1.6-.11-1.11-.24-2.21-.41-3.3-.09-.6-.19-1.2-.31-1.81-.17-1-.38-2-.6-3-.14-.6-.28-1.19-.43-1.79-.27-1-.57-2-.87-2.95-.17-.53-.31-1.06-.49-1.57-.48-1.39-1-2.76-1.58-4.09-.24-.54-.5-1.06-.75-1.6-.38-.8-.75-1.6-1.16-2.37s-.72-1.29-1.09-1.93-.71-1.21-1.09-1.8-.84-1.32-1.29-2c-.34-.49-.7-1-1.07-1.47-.49-.66-1-1.32-1.51-1.95-.3-.36-.62-.69-.92-1a43.74,43.74,0,0,0-6.75-6.27q-.37-.31-.78-.6c-.74-.54-1.52-1-2.3-1.52-.32-.19-.62-.38-.94-.56-.8-.47-1.6-.9-2.43-1.3-.29-.15-.59-.27-.88-.41-.87-.4-1.75-.78-2.65-1.11h0a34.82,34.82,0,0,0-11.94-2.16A35.2,35.2,0,0,0,233,192.86c-.27.13-.55.24-.82.38-.84.4-1.66.84-2.46,1.31l-.9.53c-.79.49-1.57,1-2.35,1.55-.24.17-.48.36-.73.55a45.13,45.13,0,0,0-6.78,6.3c-.3.35-.62.68-.92,1-.52.63-1,1.28-1.51,1.95-.37.49-.73,1-1.08,1.48s-.87,1.28-1.29,1.94-.73,1.21-1.09,1.82-.73,1.26-1.07,1.91-.8,1.6-1.18,2.42c-.25.52-.51,1-.74,1.56-.58,1.34-1.11,2.7-1.59,4.1-.17.51-.32,1-.48,1.55-.31,1-.61,2-.87,3-.16.6-.29,1.19-.43,1.79-.23,1-.43,2-.62,3-.1.6-.21,1.2-.31,1.81-.16,1.09-.29,2.19-.4,3.3,0,.53-.12,1.06-.16,1.6-.12,1.65-.2,3.32-.2,5,0,22.21,10.95,41.2,26.47,49.14h0l.12.06-1.28,6.79a13.84,13.84,0,0,1-1.46,1.64,2.5,2.5,0,0,1-.24.22,17.56,17.56,0,0,1-1.71,1.47h0l-.12.1c-.37.28-.75.56-1.15.83l-.75.52-1.31.8c-.27.16-.52.32-.79.47-.51.29-1,.58-1.58.86s-1.15.62-1.75.92l-1.16.59c-.68.34-1.36.67-2.07,1l-.19.09c-4.93,2.36-10.51,4.84-16.05,8l-.12.07c-1,.56-1.95,1.13-2.91,1.72l-.28.19c-1,.6-1.94,1.23-2.9,1.89a.57.57,0,0,1-.13.08c-13.07,9-24.4,23.22-24.4,50.32H326C326,347.6,317.94,333.93,307.57,324.79Z"/></g></svg>