<svg id="Capa_1" data-name="Capa 1" xmlns="http://www.w3.org/2000/svg" viewBox="0 0 512 512"><defs><style>.cls-1{fill:#420bd8;}</style></defs><g id="Money"><path class="cls-1" d="M357.75,192.13H136.5a2.1,2.1,0,0,0-2.1,2.1V322.32a2.1,2.1,0,0,0,2.1,2.1H357.75a2.1,2.1,0,0,0,2.1-2.1V194.23A2.1,2.1,0,0,0,357.75,192.13ZM149,312.9V205.28H343.64V312.9Z"/><path class="cls-1" d="M167.93,294H324.74V224.17H167.93Zm79.19-60.64a25.73,25.73,0,1,1-25.72,25.73A25.72,25.72,0,0,1,247.12,233.36Z"/><path class="cls-1" d="M247.65,447.8C142,447.8,56,361.83,56,256.17S142,64.54,247.65,64.54s191.63,86,191.63,191.63S353.31,447.8,247.65,447.8Zm0-364.36c-95.24,0-172.73,77.49-172.73,172.73S152.41,428.9,247.65,428.9s172.72-77.48,172.72-172.73S342.89,83.44,247.65,83.44Z"/></g></svg>