<svg id="Capa_1" data-name="Capa 1" xmlns="http://www.w3.org/2000/svg" viewBox="0 0 512 512"><defs><style>.cls-1{fill:#f1f1f1;}</style></defs><g id="Documents"><path class="cls-1" d="M247.65,64.54C142,64.54,56,150.5,56,256.17S142,447.8,247.65,447.8s191.63-86,191.63-191.63S353.31,64.54,247.65,64.54Zm0,364.36c-95.24,0-172.73-77.49-172.73-172.73S152.41,83.44,247.65,83.44s172.73,77.49,172.73,172.73S342.89,428.9,247.65,428.9Z"/><path class="cls-1" d="M316.6,139.81h-119a22.15,22.15,0,0,0-21.2,15.75H288.24A34.77,34.77,0,0,1,323,190.3V346.39a22.15,22.15,0,0,0,15.75-21.19V162A22.13,22.13,0,0,0,316.6,139.81Z"/><path class="cls-1" d="M307.91,168.17H149.59a2.46,2.46,0,0,0-2.46,2.45V373.23a2.46,2.46,0,0,0,2.46,2.45H307.91a2.46,2.46,0,0,0,2.46-2.45V170.63A2.46,2.46,0,0,0,307.91,168.17ZM285.45,335.32H172v-12.6H285.45Zm0-29.55H172V293.16H285.45Zm0-28H172v-12.6H285.45Zm0-27.95H172v-12.6H285.45Zm0-27.94H172v-12.6H285.45Z"/></g></svg>